# xmcd
#
# Track frame offsets:
#	150
#	15607
#	29385
#	40735
#	54122
#	69890
#	83068
#	96079
#	109678
#	121210
#
# Disc length: 1815 seconds
#
# Revision: 0
# Processed by: cddbd v1.5.2PL0 Copyright (c) Steve Scherf et al.
# Submitted via: audiograbber 1.83.01
#
DISCID=6c07150a
DTITLE=Laura Cantrell - Kitty Wells Dresses: Songs of the Queen of Country Musi
DTITLE=c
DYEAR=2011
DGENRE=Country
TTITLE0=Kitty Wells Dresses
TTITLE1=I Don't Claim To Be An Angel
TTITLE2=Poison In Your Heart
TTITLE3=One By One
TTITLE4=I Can't Tell My Heart
TTITLE5=It Wasn't God Who Made Honky Tonk Angels
TTITLE6=Making Believe
TTITLE7=Amigo's Guitar
TTITLE8=I Gave My Wedding Dress Away
TTITLE9=Searching For a Soldier's Grave
EXTD=
EXTT0=
EXTT1=
EXTT2=
EXTT3=
EXTT4=
EXTT5=
EXTT6=
EXTT7=
EXTT8=
EXTT9=
PLAYORDER=
